<svg id="Capa_1" data-name="Capa 1" xmlns="http://www.w3.org/2000/svg" xmlns:xlink="http://www.w3.org/1999/xlink" viewBox="0 0 60 63"><defs><filter id="luminosity-noclip" x="7.95" y="2" width="19.14" height="27.07" filterUnits="userSpaceOnUse" color-interpolation-filters="sRGB"><feFlood flood-color="#fff" result="bg"/><feBlend in="SourceGraphic" in2="bg"/></filter><mask id="mask" x="7.95" y="2" width="19.14" height="27.07" maskUnits="userSpaceOnUse"><g style="filter:url(#luminosity-noclip)"><ellipse cx="17.5" cy="10.29" rx="5.82" ry="5.57"/><ellipse cx="17.5" cy="10.29" rx="5.82" ry="5.57"/></g></mask></defs><title>MAP</title><g style="mask:url(#mask)"><path d="M17.05,27,9,11.57S10.79,3,18,3C23.32,3,26,11.57,26,11.57Z" style="stroke:#000;stroke-linecap:square;stroke-miterlimit:10;stroke-width:2px"/></g><polyline points="3 35 12 56 22 48 36 46 43 37 56 35 42 14 30 15 23 23 10 23 3 34" style="fill:none;stroke:#000;stroke-linecap:square;stroke-miterlimit:10;stroke-width:4px"/><polyline points="13 40 18 35 25 35 32 35 36 34 38 31 38 25 40 21" style="fill:none;stroke:#000;stroke-linecap:square;stroke-miterlimit:10;stroke-width:2px;stroke-dasharray:3,4"/></svg>