<svg id="Capa_1" data-name="Capa 1" xmlns="http://www.w3.org/2000/svg" viewBox="0 0 60 63"><title>ASCENT</title><line x1="12.87" y1="43.11" x2="14.89" y2="31.62" style="fill:#fff;stroke:#000;stroke-linecap:round;stroke-miterlimit:10;stroke-width:3px"/><path d="M26.05,36.64s-.33-6.1-1.69-7.44-7.94-1.73-7.94-1.73" style="fill:none;stroke:#000;stroke-linecap:round;stroke-miterlimit:10;stroke-width:4px"/><path d="M16.09,27.38s2-10.49,3.83-11.3c1.65-.73,8.67,4.44,8.67,4.44" style="fill:none;stroke:#000;stroke-linecap:round;stroke-miterlimit:10;stroke-width:4px"/><path d="M30,23.34a1,1,0,0,0,.6.81c1.14.15,3.09-2.06,4.14-2.52,1.35-.6,5.44-.61,5.44-.61s-4-1-5.64-.4C33.64,21,30.17,22.41,30,23.34Z" style="stroke:#000;stroke-linecap:round;stroke-miterlimit:10"/><line x1="34.94" y1="22.84" x2="36.25" y2="34.23" style="stroke:#000;stroke-linecap:round;stroke-miterlimit:10;stroke-width:2px"/><circle cx="20.32" cy="9.03" r="3.53" style="stroke:#000;stroke-linecap:round;stroke-miterlimit:10;stroke-width:0.75px"/><path d="M15.89,14.47s-2.15-3.69-3.43-4c-1.45-.39-4.81.77-5.65,2C4.9,15.3,5.14,23.6,7.42,26.17c.81.91,4.84.8,4.84.8Z"/><path d="M5,56.42c.2.74,30.23-21,39.92-20.37C50.59,36.4,55,56.42,55,56.42" style="fill:none;stroke:#000;stroke-linecap:round;stroke-miterlimit:10;stroke-width:3px"/></svg>